<svg width="1500" height="324" viewBox="0 0 1500 324" fill="none" xmlns="http://www.w3.org/2000/svg">
<g clip-path="url(#clip0_926_168)">
<path d="M92.1417 22.3361L0.683155 22.1414L0 320.407L47.5103 320.482L47.9184 108.209L197.476 320.814L247.87 320.951L248.549 22.7655L201.721 22.6283L201.256 185.763L92.1417 22.3361Z" fill="#EDECEC"/>
<path d="M322.566 253.941L348.996 166.847L374.064 253.999L322.562 253.941H322.566ZM393.139 320.756L464.631 320.951L404.762 134.858C401.257 123.127 389.582 106.752 366.164 106.694C345.629 106.615 332.104 118.271 325.095 138.143L265.984 320.411L302.382 320.548L313.902 282.517L382.218 282.729L393.135 320.761L393.139 320.756Z" fill="#EDECEC"/>
<path d="M808.339 255.146L834.77 168.051L859.762 255.221L808.339 255.141V255.146ZM878.913 322.018L950.405 322.155L890.513 136.063C887.031 124.349 875.408 107.956 851.937 107.899C831.403 107.899 817.952 119.555 810.81 139.423L751.757 321.69L788.155 321.748L799.618 283.796L867.996 283.934L878.913 322.022V322.018Z" fill="#EDECEC"/>
<path d="M1357.93 256.482L1384.38 169.388L1409.43 256.619L1357.93 256.482ZM1428.53 323.279L1500 323.571L1440.13 137.399C1436.62 125.743 1424.97 109.293 1401.55 109.235C1381.02 109.235 1367.49 120.869 1360.48 140.741L1301.43 323.009L1337.75 323.146L1349.29 285.058L1417.69 285.332L1428.53 323.284V323.279Z" fill="#EDECEC"/>
<path d="M552.03 59.7474C552.03 43.3723 562.676 32.8851 576.672 32.3405L604.837 32.4203L604.291 1.38343L543.371 1.24618C511.178 1.16649 484.806 15.6955 484.668 53.7268L483.985 320.406L551.347 320.601L551.812 145.673L599.265 145.81L599.345 114.229L551.892 114.092L552.03 59.7429V59.7474Z" fill="#EDECEC"/>
<path d="M714.972 288.803C710.225 288.803 696.15 283.517 696.229 263.592L696.5 145.461L734.047 145.518L734.127 114.614L696.642 114.477L696.913 0.46297L628.38 0.250488L627.697 263.455C627.621 291.539 633.401 321.898 679.741 322.036L737.685 322.173L737.764 288.861L714.972 288.803Z" fill="#EDECEC"/>
<path d="M1263.4 290.202C1258.73 290.144 1244.66 284.859 1244.73 264.991L1245.01 146.86L1282.49 146.939L1282.55 115.96L1245.06 115.823L1245.41 1.80865L1176.82 1.67139L1176.12 264.778C1176.07 292.805 1181.83 323.244 1228.17 323.377L1286.19 323.572L1286.26 290.202H1263.39H1263.4Z" fill="#EDECEC"/>
<path d="M1044.28 289.6C1039.53 289.542 1025.46 284.336 1025.52 264.446L1026.22 1.25933L957.687 1.12207L957.004 264.251C956.924 292.335 962.709 322.695 1009.05 322.832L1066.99 322.969L1067.13 289.679L1044.28 289.6H1044.28Z" fill="#EDECEC"/>
<path d="M1156.04 322.659L1086.36 322.464L1086.83 115.45L1156.6 115.663L1156.04 322.659Z" fill="#EDECEC"/>
<path d="M1158.49 53.3945C1158.42 73.5368 1142.28 89.8542 1122.37 89.7745C1102.46 89.717 1086.4 73.3995 1086.4 53.1997C1086.54 32.9822 1102.67 16.74 1122.59 16.8019C1142.5 16.8019 1158.58 33.1947 1158.5 53.3945H1158.49Z" fill="#EDECEC"/>
</g>
<defs>
<clipPath id="clip0_926_168">
<rect width="1500" height="324" fill="white"/>
</clipPath>
</defs>
</svg>
